<?xml version="1.0" encoding="utf-8"?>
<!-- Generator: Adobe Illustrator 26.1.0, SVG Export Plug-In . SVG Version: 6.00 Build 0)  -->
<svg version="1.1" xmlns="http://www.w3.org/2000/svg" xmlns:xlink="http://www.w3.org/1999/xlink" x="0px" y="0px"
	 viewBox="20 20 110 110" style="enable-background:new 0 0 153.07 153.07;" xml:space="preserve">
<style type="text/css">
	.st0{opacity:0;fill:#FFFFFF;}
	.st1{fill:#FFFFFF;}
</style>
<g id="Layer_1">
	<rect class="st0" width="153.07" height="153.07"/>
	<g>
		<g>
			<path class="st1" d="M43.1,65.55v26.32h-8.22V65.55h-9.61v-6.84h27.45v6.84H43.1z"/>
			<path class="st1" d="M84.03,84.83c-0.69,1.64-1.67,3.04-2.96,4.22c-1.28,1.17-2.83,2.08-4.64,2.74
				c-1.81,0.66-3.82,0.98-6.03,0.98c-2.24,0-4.26-0.33-6.06-0.98c-1.79-0.66-3.32-1.57-4.57-2.74c-1.25-1.17-2.21-2.58-2.88-4.22
				c-0.67-1.64-1.01-3.46-1.01-5.46V58.71h8.17v20c0,0.91,0.12,1.76,0.36,2.58c0.24,0.81,0.61,1.54,1.11,2.18
				c0.5,0.64,1.15,1.15,1.97,1.52c0.82,0.37,1.8,0.56,2.96,0.56s2.14-0.19,2.96-0.56c0.82-0.37,1.48-0.88,1.99-1.52
				c0.51-0.64,0.88-1.37,1.11-2.18c0.22-0.81,0.34-1.67,0.34-2.58v-20h8.22v20.66C85.06,81.37,84.71,83.19,84.03,84.83z"/>
		</g>
		<polygon class="st1" points="90.15,96.98 106.81,56.16 100.86,56.16 84.19,96.98 		"/>
		<path class="st1" d="M114.9,67.93c-6.86,0-12.42,5.56-12.42,12.42c0,6.86,5.56,12.42,12.42,12.42c4.4,0,8.9-1.93,11.32-5.39
			l-5.63-2.3c-1.5,1.66-3.55,2.32-5.69,2.32c-3.16,0-5.83-2.08-6.72-4.94h18.96c0.12-0.68,0.18-1.39,0.18-2.11
			C127.32,73.49,121.76,67.93,114.9,67.93z M114.9,73.31c2.94,0,5.46,1.81,6.52,4.37h-13.03C109.44,75.11,111.96,73.31,114.9,73.31z
			"/>
	</g>
</g>
<g id="logo_x5F_OP">
</g>
</svg>
